# xmcd CD database file
#
# Track frame offsets:
#	150
#	29575
#	51355
#	75497
#	113967
#	137472
#
# Disc length: 2177 seconds
#
# Revision: 0
# Processed by: cddbd v1.5.1PL2 Copyright (c) Steve Scherf et al.
# Submitted via: CDex 1.51
#
DISCID=49087f06
DTITLE=Sonny Red - Images
DYEAR=1962
DGENRE=Jazz
TTITLE0=Images
TTITLE1=Blues For Donna
TTITLE2=Dodge City
TTITLE3=Blue Sonny
TTITLE4=The Rhythm Thing
TTITLE5=Bewitched, Bothered and Bewildered
EXTD=YEAR: 1962
EXTT0=
EXTT1=
EXTT2=
EXTT3=
EXTT4=
EXTT5=
PLAYORDER=
